<?xml version="1.0" standalone="no"?>
<svg xmlns:xlink="http://www.w3.org/1999/xlink" xmlns="http://www.w3.org/2000/svg" style="left: 0px; top: 0px; width: 100%; height: 100%; display: block; min-width: 542px; height: 1345px;"><g><g/><g><g transform="translate(0.5,0.5)" style="visibility: visible;"><ellipse cx="335" cy="20" rx="20" ry="20" fill="#fdf7e9" stroke="#d6b656" pointer-events="all"/></g><g style=""><g fill="black" font-family="Arial,Helvetica" text-anchor="middle" font-size="11px"><text x="335.17" y="23.5">Start</text></g></g><g transform="translate(0.5,0.5)" style="visibility: visible;"><ellipse cx="316" cy="1324" rx="20" ry="20" fill="#fdf7e9" stroke="#d6b656" pointer-events="all"/></g><g style=""><g fill="black" font-family="Arial,Helvetica" text-anchor="middle" font-size="11px"><text x="315.59" y="1327.5">End</text></g></g><g transform="translate(0.5,0.5)" style="visibility: visible; cursor: move;"><rect x="298.67" y="70" width="73" height="40" rx="4" ry="4" fill="#eaf7fd" stroke="#7dbff9" pointer-events="all"/></g><g style="cursor: move;"><g fill="#774400" font-family="Arial,Helvetica" text-anchor="middle" font-size="11px"><text x="335.17" y="93.5">StartTraining</text></g></g><g transform="translate(0.5,0.5)" style="visibility: visible;"><rect x="281.56" y="140" width="49" height="40" rx="4" ry="4" fill="#eaf7fd" stroke="#7dbff9" pointer-events="all"/></g><g style=""><g fill="#774400" font-family="Arial,Helvetica" text-anchor="middle" font-size="11px"><text x="306.06" y="163.5">Wait10s</text></g></g><g transform="translate(0.5,0.5)" style="visibility: visible;"><rect x="285.5" y="210" width="84" height="40" rx="4" ry="4" fill="#eaf7fd" stroke="#7dbff9" pointer-events="all"/></g><g style=""><g fill="#774400" font-family="Arial,Helvetica" text-anchor="middle" font-size="11px"><text x="327.5" y="233.5">GetTrainStatus</text></g></g><g transform="translate(0.5,0.5)" style="visibility: visible;"><rect x="261.5" y="296" width="72" height="70" rx="8.4" ry="8.4" fill="#ffffff" stroke="#9d9d9d" stroke-dasharray="3 3" pointer-events="all"/></g><g style=""><g fill="black" font-family="Arial,Helvetica" text-anchor="middle" font-size="11px"><text x="297.5" y="290">IsTrainComplete</text></g></g><g style="cursor: pointer; visibility: visible;"><image x="266" y="301" width="9" height="9" xmlns:xlink="http://www.w3.org/1999/xlink" xlink:href="https://g.alicdn.com/serverless/fnf-console-frontend/0.0.1/static/mxgraph/images/expanded.gif" preserveAspectRatio="none"/></g><g transform="translate(0.5,0.5)" style="visibility: visible;"><path d="M 287 321 L 293.88 314.45 Q 297.5 311 301.12 314.45 L 314.88 327.55 Q 318.5 331 314.88 334.45 L 301.12 347.55 Q 297.5 351 293.88 347.55 L 280.12 334.45 Q 276.5 331 280.12 327.55 Z" fill="#ffffff" stroke="#9d9d9d" stroke-miterlimit="10" stroke-dasharray="3 3" pointer-events="all"/></g><g style=""><g fill="#774400" font-family="Arial,Helvetica" text-anchor="middle" font-size="11px"><text x="297.5" y="334.5">choice</text></g></g><g transform="translate(0.5,0.5)" style="visibility: visible;"><rect x="236.5" y="396" width="92" height="40" rx="4" ry="4" fill="#eaf7fd" stroke="#7dbff9" pointer-events="all"/></g><g style=""><g fill="#774400" font-family="Arial,Helvetica" text-anchor="middle" font-size="11px"><text x="282.5" y="419.5">StartDeployment</text></g></g><g transform="translate(0.5,0.5)" style="visibility: visible;"><rect x="231.33" y="466" width="43" height="40" rx="4" ry="4" fill="#eaf7fd" stroke="#7dbff9" pointer-events="all"/></g><g style=""><g fill="#774400" font-family="Arial,Helvetica" text-anchor="middle" font-size="11px"><text x="252.83" y="489.5">Wait5s</text></g></g><g transform="translate(0.5,0.5)" style="visibility: visible;"><rect x="223.5" y="536" width="118" height="40" rx="4" ry="4" fill="#eaf7fd" stroke="#7dbff9" pointer-events="all"/></g><g style=""><g fill="#774400" font-family="Arial,Helvetica" text-anchor="middle" font-size="11px"><text x="282.5" y="559.5">GetDeploymentStatus</text></g></g><g transform="translate(0.5,0.5)" style="visibility: visible;"><rect x="206.83" y="622" width="72" height="70" rx="8.4" ry="8.4" fill="#ffffff" stroke="#9d9d9d" stroke-dasharray="3 3" pointer-events="all"/></g><g style=""><g fill="black" font-family="Arial,Helvetica" text-anchor="middle" font-size="11px"><text x="242.83" y="616">IsDeploymentComplete</text></g></g><g style="cursor: pointer; visibility: visible;"><image x="211" y="627" width="9" height="9" xmlns:xlink="http://www.w3.org/1999/xlink" xlink:href="https://g.alicdn.com/serverless/fnf-console-frontend/0.0.1/static/mxgraph/images/expanded.gif" preserveAspectRatio="none"/></g><g transform="translate(0.5,0.5)" style="visibility: visible;"><path d="M 232.33 647 L 239.21 640.45 Q 242.83 637 246.45 640.45 L 260.21 653.55 Q 263.83 657 260.21 660.45 L 246.45 673.55 Q 242.83 677 239.21 673.55 L 225.45 660.45 Q 221.83 657 225.45 653.55 Z" fill="#ffffff" stroke="#9d9d9d" stroke-miterlimit="10" stroke-dasharray="3 3" pointer-events="all"/></g><g style=""><g fill="#774400" font-family="Arial,Helvetica" text-anchor="middle" font-size="11px"><text x="242.83" y="660.5">choice</text></g></g><g transform="translate(0.5,0.5)" style="visibility: visible;"><rect x="211" y="722" width="83" height="40" rx="4" ry="4" fill="#eaf7fd" stroke="#7dbff9" pointer-events="all"/></g><g style=""><g fill="#774400" font-family="Arial,Helvetica" text-anchor="middle" font-size="11px"><text x="252.5" y="745.5">ExposeService</text></g></g><g transform="translate(0.5,0.5)" style="visibility: visible;"><rect x="186" y="792" width="80" height="40" rx="4" ry="4" fill="#eaf7fd" stroke="#7dbff9" pointer-events="all"/></g><g style=""><g fill="#774400" font-family="Arial,Helvetica" text-anchor="middle" font-size="11px"><text x="226" y="815.5">Wait5sService</text></g></g><g transform="translate(0.5,0.5)" style="visibility: visible;"><rect x="203" y="862" width="99" height="40" rx="4" ry="4" fill="#eaf7fd" stroke="#7dbff9" pointer-events="all"/></g><g style=""><g fill="#774400" font-family="Arial,Helvetica" text-anchor="middle" font-size="11px"><text x="252.5" y="885.5">GetServicetStatus</text></g></g><g transform="translate(0.5,0.5)" style="visibility: visible;"><rect x="180" y="948" width="72" height="70" rx="8.4" ry="8.4" fill="#ffffff" stroke="#9d9d9d" stroke-dasharray="3 3" pointer-events="all"/></g><g style=""><g fill="black" font-family="Arial,Helvetica" text-anchor="middle" font-size="11px"><text x="216" y="942">IsServiceComplete</text></g></g><g style="cursor: pointer; visibility: visible;"><image x="185" y="953" width="9" height="9" xmlns:xlink="http://www.w3.org/1999/xlink" xlink:href="https://g.alicdn.com/serverless/fnf-console-frontend/0.0.1/static/mxgraph/images/expanded.gif" preserveAspectRatio="none"/></g><g transform="translate(0.5,0.5)" style="visibility: visible;"><path d="M 205.5 973 L 212.38 966.45 Q 216 963 219.62 966.45 L 233.38 979.55 Q 237 983 233.38 986.45 L 219.62 999.55 Q 216 1003 212.38 999.55 L 198.62 986.45 Q 195 983 198.62 979.55 Z" fill="#ffffff" stroke="#9d9d9d" stroke-miterlimit="10" stroke-dasharray="3 3" pointer-events="all"/></g><g style=""><g fill="#774400" font-family="Arial,Helvetica" text-anchor="middle" font-size="11px"><text x="216" y="986.5">choice</text></g></g><g transform="translate(0.5,0.5)" style="visibility: visible;"><rect x="114" y="1048" width="217" height="40" rx="4" ry="4" fill="#eaf7fd" stroke="#7dbff9" pointer-events="all"/></g><g style=""><g fill="#774400" font-family="Arial,Helvetica" text-anchor="middle" font-size="11px"><text x="222.5" y="1071.5">RunTestCasesAndWaitForManualDecision</text></g></g><g transform="translate(0.5,0.5)" style="visibility: visible;"><rect x="171.5" y="1134" width="72" height="70" rx="8.4" ry="8.4" fill="#ffffff" stroke="#9d9d9d" stroke-dasharray="3 3" pointer-events="all"/></g><g style=""><g fill="black" font-family="Arial,Helvetica" text-anchor="middle" font-size="11px"><text x="207.5" y="1128">IsModelApproved</text></g></g><g style="cursor: pointer; visibility: visible;"><image x="176" y="1139" width="9" height="9" xmlns:xlink="http://www.w3.org/1999/xlink" xlink:href="https://g.alicdn.com/serverless/fnf-console-frontend/0.0.1/static/mxgraph/images/expanded.gif" preserveAspectRatio="none"/></g><g transform="translate(0.5,0.5)" style="visibility: visible;"><path d="M 197 1159 L 203.88 1152.45 Q 207.5 1149 211.12 1152.45 L 224.88 1165.55 Q 228.5 1169 224.88 1172.45 L 211.12 1185.55 Q 207.5 1189 203.88 1185.55 L 190.12 1172.45 Q 186.5 1169 190.12 1165.55 Z" fill="#ffffff" stroke="#9d9d9d" stroke-miterlimit="10" stroke-dasharray="3 3" pointer-events="all"/></g><g style=""><g fill="#774400" font-family="Arial,Helvetica" text-anchor="middle" font-size="11px"><text x="207.5" y="1172.5">choice</text></g></g><g transform="translate(0.5,0.5)" style="visibility: visible;"><rect x="219.09" y="1234" width="86" height="40" rx="4" ry="4" fill="#eaf7fd" stroke="#7dbff9" pointer-events="all"/></g><g style=""><g fill="#774400" font-family="Arial,Helvetica" text-anchor="middle" font-size="11px"><text x="262.09" y="1257.5">NotifySucceess</text></g></g><g transform="translate(0.5,0.5)" style="visibility: visible;"><rect x="335.09" y="1234" width="68" height="40" rx="4" ry="4" fill="#eaf7fd" stroke="#7dbff9" pointer-events="all"/></g><g style=""><g fill="#774400" font-family="Arial,Helvetica" text-anchor="middle" font-size="11px"><text x="369.09" y="1257.5">NotifyFailed</text></g></g><g transform="translate(0.5,0.5)" style="visibility: visible;"><path d="M 319.42 110 Q 319.42 122 312.74 125 Q 306.06 128 306.06 133.63" fill="none" stroke="white" stroke-miterlimit="10" pointer-events="stroke" visibility="hidden" stroke-width="9"/><path d="M 319.42 110 Q 319.42 122 312.74 125 Q 306.06 128 306.06 133.63" fill="none" stroke="#6482b9" stroke-miterlimit="10"/><path d="M 306.06 138.88 L 302.56 131.88 L 306.06 133.63 L 309.56 131.88 Z" fill="#6482b9" stroke="#6482b9" stroke-miterlimit="10" pointer-events="all"/></g><g transform="translate(0.5,0.5)" style="visibility: visible; cursor: move;"><path d="M 350.92 110 Q 350.92 122 445.96 123.5 Q 541 125 541 160 Q 541 195 541 195 Q 541 195 541 230 Q 541 265 541 265 Q 541 265 541 323 Q 541 381 541 381 Q 541 381 541 416 Q 541 451 541 451 Q 541 451 541 486 Q 541 521 541 521 Q 541 521 541 556 Q 541 591 541 591 Q 541 591 541 649 Q 541 707 541 707 Q 541 707 541 742 Q 541 777 541 777 Q 541 777 541 812 Q 541 847 541 847 Q 541 847 541 882 Q 541 917 541 917 Q 541 917 541 975 Q 541 1033 541 1033 Q 541 1033 541 1068 Q 541 1103 541 1103 Q 541 1103 541 1161 Q 541 1219 467.94 1220.5 Q 394.87 1222 394.87 1227.63" fill="none" stroke="white" stroke-miterlimit="10" pointer-events="stroke" visibility="hidden" stroke-width="9"/><path d="M 350.92 110 Q 350.92 122 445.96 123.5 Q 541 125 541 160 Q 541 195 541 195 Q 541 195 541 230 Q 541 265 541 265 Q 541 265 541 323 Q 541 381 541 381 Q 541 381 541 416 Q 541 451 541 451 Q 541 451 541 486 Q 541 521 541 521 Q 541 521 541 556 Q 541 591 541 591 Q 541 591 541 649 Q 541 707 541 707 Q 541 707 541 742 Q 541 777 541 777 Q 541 777 541 812 Q 541 847 541 847 Q 541 847 541 882 Q 541 917 541 917 Q 541 917 541 975 Q 541 1033 541 1033 Q 541 1033 541 1068 Q 541 1103 541 1103 Q 541 1103 541 1161 Q 541 1219 467.94 1220.5 Q 394.87 1222 394.87 1227.63" fill="none" stroke="#6482b9" stroke-miterlimit="10"/><path d="M 394.87 1232.88 L 391.37 1225.88 L 394.87 1227.63 L 398.37 1225.88 Z" fill="#6482b9" stroke="#6482b9" stroke-miterlimit="10" pointer-events="all"/></g><g transform="translate(0.5,0.5)" style="visibility: visible;"><path d="M 315.81 180 Q 315.81 192 321.65 195 Q 327.5 198 327.5 203.63" fill="none" stroke="white" stroke-miterlimit="10" pointer-events="stroke" visibility="hidden" stroke-width="9"/><path d="M 315.81 180 Q 315.81 192 321.65 195 Q 327.5 198 327.5 203.63" fill="none" stroke="#6482b9" stroke-miterlimit="10"/><path d="M 327.5 208.88 L 324 201.88 L 327.5 203.63 L 331 201.88 Z" fill="#6482b9" stroke="#6482b9" stroke-miterlimit="10" pointer-events="all"/></g><g transform="translate(0.5,0.5)" style="visibility: visible;"><path d="M 309 250 Q 309 262 312.04 265 Q 315.08 268 315.08 289.63" fill="none" stroke="white" stroke-miterlimit="10" pointer-events="stroke" visibility="hidden" stroke-width="9"/><path d="M 309 250 Q 309 262 312.04 265 Q 315.08 268 315.08 289.63" fill="none" stroke="#6482b9" stroke-miterlimit="10"/><path d="M 315.08 294.88 L 311.58 287.88 L 315.08 289.63 L 318.58 287.88 Z" fill="#6482b9" stroke="#6482b9" stroke-miterlimit="10" pointer-events="all"/></g><g transform="translate(0.5,0.5)" style="visibility: visible;"><path d="M 346 250 Q 346 262 428.5 263.5 Q 511 265 511 323 Q 511 381 511 381 Q 511 381 511 416 Q 511 451 511 451 Q 511 451 511 486 Q 511 521 511 521 Q 511 521 511 556 Q 511 591 511 591 Q 511 591 511 649 Q 511 707 511 707 Q 511 707 511 742 Q 511 777 511 777 Q 511 777 511 812 Q 511 847 511 847 Q 511 847 511 882 Q 511 917 511 917 Q 511 917 511 975 Q 511 1033 511 1033 Q 511 1033 511 1068 Q 511 1103 511 1103 Q 511 1103 511 1161 Q 511 1219 449.71 1219.5 Q 388.43 1220 388.43 1227.63" fill="none" stroke="white" stroke-miterlimit="10" pointer-events="stroke" visibility="hidden" stroke-width="9"/><path d="M 346 250 Q 346 262 428.5 263.5 Q 511 265 511 323 Q 511 381 511 381 Q 511 381 511 416 Q 511 451 511 451 Q 511 451 511 486 Q 511 521 511 521 Q 511 521 511 556 Q 511 591 511 591 Q 511 591 511 649 Q 511 707 511 707 Q 511 707 511 742 Q 511 777 511 777 Q 511 777 511 812 Q 511 847 511 847 Q 511 847 511 882 Q 511 917 511 917 Q 511 917 511 975 Q 511 1033 511 1033 Q 511 1033 511 1068 Q 511 1103 511 1103 Q 511 1103 511 1161 Q 511 1219 449.71 1219.5 Q 388.43 1220 388.43 1227.63" fill="none" stroke="#6482b9" stroke-miterlimit="10"/><path d="M 388.43 1232.88 L 384.93 1225.88 L 388.43 1227.63 L 391.93 1225.88 Z" fill="#6482b9" stroke="#6482b9" stroke-miterlimit="10" pointer-events="all"/></g><g transform="translate(0.5,0.5)" style="visibility: visible;"><path d="M 274.06 366 Q 274.06 378 268.03 381 Q 262 384 262 389.63" fill="none" stroke="white" stroke-miterlimit="10" pointer-events="stroke" visibility="hidden" stroke-width="9"/><path d="M 274.06 366 Q 274.06 378 268.03 381 Q 262 384 262 389.63" fill="none" stroke="#6482b9" stroke-miterlimit="10"/><path d="M 262 394.88 L 258.5 387.88 L 262 389.63 L 265.5 387.88 Z" fill="#6482b9" stroke="#6482b9" stroke-miterlimit="10" pointer-events="all"/></g><g transform="translate(0.5,0.5)" style="visibility: visible;"><path d="M 320.94 366 Q 320.94 380 400.97 380.5 Q 481 381 481 416 Q 481 451 481 451 Q 481 451 481 486 Q 481 521 481 521 Q 481 521 481 556 Q 481 591 481 591 Q 481 591 481 649 Q 481 707 481 707 Q 481 707 481 742 Q 481 777 481 777 Q 481 777 481 812 Q 481 847 481 847 Q 481 847 481 882 Q 481 917 481 917 Q 481 917 481 975 Q 481 1033 481 1033 Q 481 1033 481 1068 Q 481 1103 481 1103 Q 481 1103 481 1161 Q 481 1219 431.49 1218.5 Q 381.98 1218 381.98 1227.63" fill="none" stroke="white" stroke-miterlimit="10" pointer-events="stroke" visibility="hidden" stroke-width="9"/><path d="M 320.94 366 Q 320.94 380 400.97 380.5 Q 481 381 481 416 Q 481 451 481 451 Q 481 451 481 486 Q 481 521 481 521 Q 481 521 481 556 Q 481 591 481 591 Q 481 591 481 649 Q 481 707 481 707 Q 481 707 481 742 Q 481 777 481 777 Q 481 777 481 812 Q 481 847 481 847 Q 481 847 481 882 Q 481 917 481 917 Q 481 917 481 975 Q 481 1033 481 1033 Q 481 1033 481 1068 Q 481 1103 481 1103 Q 481 1103 481 1161 Q 481 1219 431.49 1218.5 Q 381.98 1218 381.98 1227.63" fill="none" stroke="#6482b9" stroke-miterlimit="10"/><path d="M 381.98 1232.88 L 378.48 1225.88 L 381.98 1227.63 L 385.48 1225.88 Z" fill="#6482b9" stroke="#6482b9" stroke-miterlimit="10" pointer-events="all"/></g><g transform="translate(0.5,0.5)" style="visibility: visible;"><path d="M 279.92 296 Q 279.92 268 267.71 266.5 Q 255.5 265 255.5 230 Q 255.5 195 275.9 193.5 Q 296.31 192 296.31 186.37" fill="none" stroke="white" stroke-miterlimit="10" pointer-events="stroke" visibility="hidden" stroke-width="9"/><path d="M 279.92 296 Q 279.92 268 267.71 266.5 Q 255.5 265 255.5 230 Q 255.5 195 275.9 193.5 Q 296.31 192 296.31 186.37" fill="none" stroke="#6482b9" stroke-miterlimit="10"/><path d="M 296.31 181.12 L 299.81 188.12 L 296.31 186.37 L 292.81 188.12 Z" fill="#6482b9" stroke="#6482b9" stroke-miterlimit="10" pointer-events="all"/></g><g transform="translate(0.5,0.5)" style="visibility: visible;"><path d="M 297.5 366 Q 297.5 378 300.25 381 Q 303 384 303 389.63" fill="none" stroke="white" stroke-miterlimit="10" pointer-events="stroke" visibility="hidden" stroke-width="9"/><path d="M 297.5 366 Q 297.5 378 300.25 381 Q 303 384 303 389.63" fill="none" stroke="#6482b9" stroke-miterlimit="10"/><path d="M 303 394.88 L 299.5 387.88 L 303 389.63 L 306.5 387.88 Z" fill="#6482b9" stroke="#6482b9" stroke-miterlimit="10" pointer-events="all"/></g><g transform="translate(0.5,0.5)" style="visibility: visible;"><path d="M 262 436 Q 262 448 257.42 451 Q 252.83 454 252.83 459.63" fill="none" stroke="white" stroke-miterlimit="10" pointer-events="stroke" visibility="hidden" stroke-width="9"/><path d="M 262 436 Q 262 448 257.42 451 Q 252.83 454 252.83 459.63" fill="none" stroke="#6482b9" stroke-miterlimit="10"/><path d="M 252.83 464.88 L 249.33 457.88 L 252.83 459.63 L 256.33 457.88 Z" fill="#6482b9" stroke="#6482b9" stroke-miterlimit="10" pointer-events="all"/></g><g transform="translate(0.5,0.5)" style="visibility: visible;"><path d="M 303 436 Q 303 448 377 449.5 Q 451 451 451 486 Q 451 521 451 521 Q 451 521 451 556 Q 451 591 451 591 Q 451 591 451 649 Q 451 707 451 707 Q 451 707 451 742 Q 451 777 451 777 Q 451 777 451 812 Q 451 847 451 847 Q 451 847 451 882 Q 451 917 451 917 Q 451 917 451 975 Q 451 1033 451 1033 Q 451 1033 451 1068 Q 451 1103 451 1103 Q 451 1103 451 1161 Q 451 1219 413.27 1217.5 Q 375.54 1216 375.54 1227.63" fill="none" stroke="white" stroke-miterlimit="10" pointer-events="stroke" visibility="hidden" stroke-width="9"/><path d="M 303 436 Q 303 448 377 449.5 Q 451 451 451 486 Q 451 521 451 521 Q 451 521 451 556 Q 451 591 451 591 Q 451 591 451 649 Q 451 707 451 707 Q 451 707 451 742 Q 451 777 451 777 Q 451 777 451 812 Q 451 847 451 847 Q 451 847 451 882 Q 451 917 451 917 Q 451 917 451 975 Q 451 1033 451 1033 Q 451 1033 451 1068 Q 451 1103 451 1103 Q 451 1103 451 1161 Q 451 1219 413.27 1217.5 Q 375.54 1216 375.54 1227.63" fill="none" stroke="#6482b9" stroke-miterlimit="10"/><path d="M 375.54 1232.88 L 372.04 1225.88 L 375.54 1227.63 L 379.04 1225.88 Z" fill="#6482b9" stroke="#6482b9" stroke-miterlimit="10" pointer-events="all"/></g><g transform="translate(0.5,0.5)" style="visibility: visible;"><path d="M 261.08 506 Q 261.08 518 271.79 521 Q 282.5 524 282.5 529.63" fill="none" stroke="white" stroke-miterlimit="10" pointer-events="stroke" visibility="hidden" stroke-width="9"/><path d="M 261.08 506 Q 261.08 518 271.79 521 Q 282.5 524 282.5 529.63" fill="none" stroke="#6482b9" stroke-miterlimit="10"/><path d="M 282.5 534.88 L 279 527.88 L 282.5 529.63 L 286 527.88 Z" fill="#6482b9" stroke="#6482b9" stroke-miterlimit="10" pointer-events="all"/></g><g transform="translate(0.5,0.5)" style="visibility: visible;"><path d="M 255.5 576 Q 255.5 588 262.21 591 Q 268.92 594 268.92 615.63" fill="none" stroke="white" stroke-miterlimit="10" pointer-events="stroke" visibility="hidden" stroke-width="9"/><path d="M 255.5 576 Q 255.5 588 262.21 591 Q 268.92 594 268.92 615.63" fill="none" stroke="#6482b9" stroke-miterlimit="10"/><path d="M 268.92 620.88 L 265.42 613.88 L 268.92 615.63 L 272.42 613.88 Z" fill="#6482b9" stroke="#6482b9" stroke-miterlimit="10" pointer-events="all"/></g><g transform="translate(0.5,0.5)" style="visibility: visible;"><path d="M 309.5 576 Q 309.5 588 365.25 589.5 Q 421 591 421 649 Q 421 707 421 707 Q 421 707 421 742 Q 421 777 421 777 Q 421 777 421 812 Q 421 847 421 847 Q 421 847 421 882 Q 421 917 421 917 Q 421 917 421 975 Q 421 1033 421 1033 Q 421 1033 421 1068 Q 421 1103 421 1103 Q 421 1103 421 1161 Q 421 1219 395.05 1216.5 Q 369.09 1214 369.09 1227.63" fill="none" stroke="white" stroke-miterlimit="10" pointer-events="stroke" visibility="hidden" stroke-width="9"/><path d="M 309.5 576 Q 309.5 588 365.25 589.5 Q 421 591 421 649 Q 421 707 421 707 Q 421 707 421 742 Q 421 777 421 777 Q 421 777 421 812 Q 421 847 421 847 Q 421 847 421 882 Q 421 917 421 917 Q 421 917 421 975 Q 421 1033 421 1033 Q 421 1033 421 1068 Q 421 1103 421 1103 Q 421 1103 421 1161 Q 421 1219 395.05 1216.5 Q 369.09 1214 369.09 1227.63" fill="none" stroke="#6482b9" stroke-miterlimit="10"/><path d="M 369.09 1232.88 L 365.59 1225.88 L 369.09 1227.63 L 372.59 1225.88 Z" fill="#6482b9" stroke="#6482b9" stroke-miterlimit="10" pointer-events="all"/></g><g transform="translate(0.5,0.5)" style="visibility: visible;"><path d="M 216.75 692 Q 216.75 704 225.5 707 Q 234.25 710 234.25 715.63" fill="none" stroke="white" stroke-miterlimit="10" pointer-events="stroke" visibility="hidden" stroke-width="9"/><path d="M 216.75 692 Q 216.75 704 225.5 707 Q 234.25 710 234.25 715.63" fill="none" stroke="#6482b9" stroke-miterlimit="10"/><path d="M 234.25 720.88 L 230.75 713.88 L 234.25 715.63 L 237.75 713.88 Z" fill="#6482b9" stroke="#6482b9" stroke-miterlimit="10" pointer-events="all"/></g><g transform="translate(0.5,0.5)" style="visibility: visible;"><path d="M 216.75 622 Q 216.75 594 205.12 592.5 Q 193.5 591 193.5 556 Q 193.5 521 219.04 519.5 Q 244.58 518 244.58 512.37" fill="none" stroke="white" stroke-miterlimit="10" pointer-events="stroke" visibility="hidden" stroke-width="9"/><path d="M 216.75 622 Q 216.75 594 205.12 592.5 Q 193.5 591 193.5 556 Q 193.5 521 219.04 519.5 Q 244.58 518 244.58 512.37" fill="none" stroke="#6482b9" stroke-miterlimit="10"/><path d="M 244.58 507.12 L 248.08 514.12 L 244.58 512.37 L 241.08 514.12 Z" fill="#6482b9" stroke="#6482b9" stroke-miterlimit="10" pointer-events="all"/></g><g transform="translate(0.5,0.5)" style="visibility: visible;"><path d="M 268.92 692 Q 268.92 704 269.83 707 Q 270.75 710 270.75 715.63" fill="none" stroke="white" stroke-miterlimit="10" pointer-events="stroke" visibility="hidden" stroke-width="9"/><path d="M 268.92 692 Q 268.92 704 269.83 707 Q 270.75 710 270.75 715.63" fill="none" stroke="#6482b9" stroke-miterlimit="10"/><path d="M 270.75 720.88 L 267.25 713.88 L 270.75 715.63 L 274.25 713.88 Z" fill="#6482b9" stroke="#6482b9" stroke-miterlimit="10" pointer-events="all"/></g><g transform="translate(0.5,0.5)" style="visibility: visible;"><path d="M 234.25 762 Q 234.25 774 230.13 777 Q 226 780 226 785.63" fill="none" stroke="white" stroke-miterlimit="10" pointer-events="stroke" visibility="hidden" stroke-width="9"/><path d="M 234.25 762 Q 234.25 774 230.13 777 Q 226 780 226 785.63" fill="none" stroke="#6482b9" stroke-miterlimit="10"/><path d="M 226 790.88 L 222.5 783.88 L 226 785.63 L 229.5 783.88 Z" fill="#6482b9" stroke="#6482b9" stroke-miterlimit="10" pointer-events="all"/></g><g transform="translate(0.5,0.5)" style="visibility: visible;"><path d="M 270.75 762 Q 270.75 774 330.88 775.5 Q 391 777 391 812 Q 391 847 391 847 Q 391 847 391 882 Q 391 917 391 917 Q 391 917 391 975 Q 391 1033 391 1033 Q 391 1033 391 1068 Q 391 1103 391 1103 Q 391 1103 391 1161 Q 391 1219 376.82 1217.5 Q 362.65 1216 362.65 1227.63" fill="none" stroke="white" stroke-miterlimit="10" pointer-events="stroke" visibility="hidden" stroke-width="9"/><path d="M 270.75 762 Q 270.75 774 330.88 775.5 Q 391 777 391 812 Q 391 847 391 847 Q 391 847 391 882 Q 391 917 391 917 Q 391 917 391 975 Q 391 1033 391 1033 Q 391 1033 391 1068 Q 391 1103 391 1103 Q 391 1103 391 1161 Q 391 1219 376.82 1217.5 Q 362.65 1216 362.65 1227.63" fill="none" stroke="#6482b9" stroke-miterlimit="10"/><path d="M 362.65 1232.88 L 359.15 1225.88 L 362.65 1227.63 L 366.15 1225.88 Z" fill="#6482b9" stroke="#6482b9" stroke-miterlimit="10" pointer-events="all"/></g><g transform="translate(0.5,0.5)" style="visibility: visible;"><path d="M 243.5 832 Q 243.5 844 248 847 Q 252.5 850 252.5 855.63" fill="none" stroke="white" stroke-miterlimit="10" pointer-events="stroke" visibility="hidden" stroke-width="9"/><path d="M 243.5 832 Q 243.5 844 248 847 Q 252.5 850 252.5 855.63" fill="none" stroke="#6482b9" stroke-miterlimit="10"/><path d="M 252.5 860.88 L 249 853.88 L 252.5 855.63 L 256 853.88 Z" fill="#6482b9" stroke="#6482b9" stroke-miterlimit="10" pointer-events="all"/></g><g transform="translate(0.5,0.5)" style="visibility: visible;"><path d="M 230.25 902 Q 230.25 914 233.42 917 Q 236.59 920 236.59 941.63" fill="none" stroke="white" stroke-miterlimit="10" pointer-events="stroke" visibility="hidden" stroke-width="9"/><path d="M 230.25 902 Q 230.25 914 233.42 917 Q 236.59 920 236.59 941.63" fill="none" stroke="#6482b9" stroke-miterlimit="10"/><path d="M 236.59 946.88 L 233.09 939.88 L 236.59 941.63 L 240.09 939.88 Z" fill="#6482b9" stroke="#6482b9" stroke-miterlimit="10" pointer-events="all"/></g><g transform="translate(0.5,0.5)" style="visibility: visible;"><path d="M 274.75 902 Q 274.75 914 317.88 915.5 Q 361 917 361 975 Q 361 1033 361 1033 Q 361 1033 361 1068 Q 361 1103 361 1103 Q 361 1103 361 1161 Q 361 1219 358.6 1218.5 Q 356.2 1218 356.2 1227.63" fill="none" stroke="white" stroke-miterlimit="10" pointer-events="stroke" visibility="hidden" stroke-width="9"/><path d="M 274.75 902 Q 274.75 914 317.88 915.5 Q 361 917 361 975 Q 361 1033 361 1033 Q 361 1033 361 1068 Q 361 1103 361 1103 Q 361 1103 361 1161 Q 361 1219 358.6 1218.5 Q 356.2 1218 356.2 1227.63" fill="none" stroke="#6482b9" stroke-miterlimit="10"/><path d="M 356.2 1232.88 L 352.7 1225.88 L 356.2 1227.63 L 359.7 1225.88 Z" fill="#6482b9" stroke="#6482b9" stroke-miterlimit="10" pointer-events="all"/></g><g transform="translate(0.5,0.5)" style="visibility: visible;"><path d="M 195.41 1018 Q 195.41 1030 183.08 1033 Q 170.75 1036 170.75 1041.63" fill="none" stroke="white" stroke-miterlimit="10" pointer-events="stroke" visibility="hidden" stroke-width="9"/><path d="M 195.41 1018 Q 195.41 1030 183.08 1033 Q 170.75 1036 170.75 1041.63" fill="none" stroke="#6482b9" stroke-miterlimit="10"/><path d="M 170.75 1046.88 L 167.25 1039.88 L 170.75 1041.63 L 174.25 1039.88 Z" fill="#6482b9" stroke="#6482b9" stroke-miterlimit="10" pointer-events="all"/></g><g transform="translate(0.5,0.5)" style="visibility: visible;"><path d="M 195.41 948 Q 195.41 920 184.21 918.5 Q 173 917 173 882 Q 173 847 190.75 845.5 Q 208.5 844 208.5 838.37" fill="none" stroke="white" stroke-miterlimit="10" pointer-events="stroke" visibility="hidden" stroke-width="9"/><path d="M 195.41 948 Q 195.41 920 184.21 918.5 Q 173 917 173 882 Q 173 847 190.75 845.5 Q 208.5 844 208.5 838.37" fill="none" stroke="#6482b9" stroke-miterlimit="10"/><path d="M 208.5 833.12 L 212 840.12 L 208.5 838.37 L 205 840.12 Z" fill="#6482b9" stroke="#6482b9" stroke-miterlimit="10" pointer-events="all"/></g><g transform="translate(0.5,0.5)" style="visibility: visible;"><path d="M 236.59 1018 Q 236.59 1030 255.42 1033 Q 274.25 1036 274.25 1041.63" fill="none" stroke="white" stroke-miterlimit="10" pointer-events="stroke" visibility="hidden" stroke-width="9"/><path d="M 236.59 1018 Q 236.59 1030 255.42 1033 Q 274.25 1036 274.25 1041.63" fill="none" stroke="#6482b9" stroke-miterlimit="10"/><path d="M 274.25 1046.88 L 270.75 1039.88 L 274.25 1041.63 L 277.75 1039.88 Z" fill="#6482b9" stroke="#6482b9" stroke-miterlimit="10" pointer-events="all"/></g><g transform="translate(0.5,0.5)" style="visibility: visible;"><path d="M 170.75 1088 Q 170.75 1100 189.13 1103 Q 207.5 1106 207.5 1127.63" fill="none" stroke="white" stroke-miterlimit="10" pointer-events="stroke" visibility="hidden" stroke-width="9"/><path d="M 170.75 1088 Q 170.75 1100 189.13 1103 Q 207.5 1106 207.5 1127.63" fill="none" stroke="#6482b9" stroke-miterlimit="10"/><path d="M 207.5 1132.88 L 204 1125.88 L 207.5 1127.63 L 211 1125.88 Z" fill="#6482b9" stroke="#6482b9" stroke-miterlimit="10" pointer-events="all"/></g><g transform="translate(0.5,0.5)" style="visibility: visible;"><path d="M 274.25 1088 Q 274.25 1100 277.28 1101.5 Q 280.31 1103 280.31 1161 Q 280.31 1219 315.04 1219.5 Q 349.76 1220 349.76 1227.63" fill="none" stroke="white" stroke-miterlimit="10" pointer-events="stroke" visibility="hidden" stroke-width="9"/><path d="M 274.25 1088 Q 274.25 1100 277.28 1101.5 Q 280.31 1103 280.31 1161 Q 280.31 1219 315.04 1219.5 Q 349.76 1220 349.76 1227.63" fill="none" stroke="#6482b9" stroke-miterlimit="10"/><path d="M 349.76 1232.88 L 346.26 1225.88 L 349.76 1227.63 L 353.26 1225.88 Z" fill="#6482b9" stroke="#6482b9" stroke-miterlimit="10" pointer-events="all"/></g><g transform="translate(0.5,0.5)" style="visibility: visible;"><path d="M 182.29 1204 Q 182.29 1216 212.69 1219 Q 243.09 1222 243.09 1227.63" fill="none" stroke="white" stroke-miterlimit="10" pointer-events="stroke" visibility="hidden" stroke-width="9"/><path d="M 182.29 1204 Q 182.29 1216 212.69 1219 Q 243.09 1222 243.09 1227.63" fill="none" stroke="#6482b9" stroke-miterlimit="10"/><path d="M 243.09 1232.88 L 239.59 1225.88 L 243.09 1227.63 L 246.59 1225.88 Z" fill="#6482b9" stroke="#6482b9" stroke-miterlimit="10" pointer-events="all"/></g><g transform="translate(0.5,0.5)" style="visibility: visible;"><path d="M 232.71 1204 Q 232.71 1218 288.01 1220 Q 343.32 1222 343.32 1227.63" fill="none" stroke="white" stroke-miterlimit="10" pointer-events="stroke" visibility="hidden" stroke-width="9"/><path d="M 232.71 1204 Q 232.71 1218 288.01 1220 Q 343.32 1222 343.32 1227.63" fill="none" stroke="#6482b9" stroke-miterlimit="10"/><path d="M 343.32 1232.88 L 339.82 1225.88 L 343.32 1227.63 L 346.82 1225.88 Z" fill="#6482b9" stroke="#6482b9" stroke-miterlimit="10" pointer-events="all"/></g><g transform="translate(0.5,0.5)" style="visibility: visible;"><path d="M 207.5 1204 Q 207.5 1216 244.3 1219 Q 281.09 1222 281.09 1227.63" fill="none" stroke="white" stroke-miterlimit="10" pointer-events="stroke" visibility="hidden" stroke-width="9"/><path d="M 207.5 1204 Q 207.5 1216 244.3 1219 Q 281.09 1222 281.09 1227.63" fill="none" stroke="#6482b9" stroke-miterlimit="10"/><path d="M 281.09 1232.88 L 277.59 1225.88 L 281.09 1227.63 L 284.59 1225.88 Z" fill="#6482b9" stroke="#6482b9" stroke-miterlimit="10" pointer-events="all"/></g><g transform="translate(0.5,0.5)" style="visibility: visible;"><path d="M 262.09 1274 Q 262.09 1286 285.09 1289 Q 308.09 1292 308.09 1297.63" fill="none" stroke="white" stroke-miterlimit="10" pointer-events="stroke" visibility="hidden" stroke-width="9"/><path d="M 262.09 1274 Q 262.09 1286 285.09 1289 Q 308.09 1292 308.09 1297.63" fill="none" stroke="#6482b9" stroke-miterlimit="10"/><path d="M 308.09 1302.88 L 304.59 1295.88 L 308.09 1297.63 L 311.59 1295.88 Z" fill="#6482b9" stroke="#6482b9" stroke-miterlimit="10" pointer-events="all"/></g><g transform="translate(0.5,0.5)" style="visibility: visible;"><path d="M 369.09 1274 Q 369.09 1286 346.09 1289 Q 323.09 1292 323.09 1297.63" fill="none" stroke="white" stroke-miterlimit="10" pointer-events="stroke" visibility="hidden" stroke-width="9"/><path d="M 369.09 1274 Q 369.09 1286 346.09 1289 Q 323.09 1292 323.09 1297.63" fill="none" stroke="#6482b9" stroke-miterlimit="10"/><path d="M 323.09 1302.88 L 319.59 1295.88 L 323.09 1297.63 L 326.59 1295.88 Z" fill="#6482b9" stroke="#6482b9" stroke-miterlimit="10" pointer-events="all"/></g><g transform="translate(0.5,0.5)" style="visibility: visible;"><path d="M 335.17 40 Q 335.17 52 335.17 55 Q 335.17 58 335.17 63.63" fill="none" stroke="white" stroke-miterlimit="10" pointer-events="stroke" visibility="hidden" stroke-width="9"/><path d="M 335.17 40 Q 335.17 52 335.17 55 Q 335.17 58 335.17 63.63" fill="none" stroke="#6482b9" stroke-miterlimit="10"/><path d="M 335.17 68.88 L 331.67 61.88 L 335.17 63.63 L 338.67 61.88 Z" fill="#6482b9" stroke="#6482b9" stroke-miterlimit="10" pointer-events="all"/></g></g><g/><g/></g></svg>